<svg width="1080" height="1080" viewBox="0 0 1080 1080" fill="none" xmlns="http://www.w3.org/2000/svg">
<g clip-path="url(#clip0_1_2)">
<rect width="1080" height="1080" fill="black"/>
<path d="M47.6313 1080L47.6313 691.2L47.6313 446.4H203.631L204.831 657.6H225.231C234.031 604.8 247.231 561.6 264.831 528C282.431 494.4 304.431 469.6 330.831 453.6C358.031 437.6 390.031 429.6 426.831 429.6C453.231 429.6 476.831 434 497.631 442.8C518.431 451.6 536.031 465.2 550.431 483.6C564.831 501.2 576.431 524.8 585.231 554.4C594.031 583.2 599.631 617.6 602.031 657.6H617.631C628.031 604 643.231 560.4 663.231 526.8C683.231 493.2 707.631 468.8 736.431 453.6C765.231 437.6 797.231 429.6 832.431 429.6C868.431 429.6 898.431 436.4 922.431 450C947.231 463.6 967.231 481.6 982.431 504C997.631 526.4 1009.23 552 1017.23 580.8C1026.03 608.8 1032.03 637.6 1035.23 667.2C1038.43 696.8 1040.03 724.8 1040.03 751.2V1080H845.631V770.4C845.631 756.8 844.831 740.4 843.231 721.2C842.431 702 839.231 682.8 833.631 663.6C828.031 644.4 819.231 628.4 807.231 615.6C795.231 602.8 778.431 596.4 756.831 596.4C733.631 596.4 712.831 605.2 694.431 622.8C676.831 640.4 662.831 665.2 652.431 697.2C642.831 729.2 638.031 768 638.031 813.6V1080H448.431L448.431 771.6C448.431 758.8 447.631 742.8 446.031 723.6C445.231 703.6 442.031 684 436.431 664.8C431.631 645.6 422.831 629.6 410.031 616.8C398.031 603.2 380.431 596.4 357.231 596.4C334.831 596.4 314.831 604.8 297.231 621.6C279.631 637.6 265.631 662 255.231 694.8C245.631 726.8 240.831 766.4 240.831 813.6L240.831 1080H47.6313Z" fill="white"/>
<path d="M127.95 341.64C121.057 341.64 115.19 340.687 110.35 338.78C105.51 336.873 101.55 334.087 98.4703 330.42C95.537 326.753 93.4103 322.353 92.0903 317.22C90.7703 311.94 90.1103 306 90.1103 299.4V248.36H74.4903L74.9303 225.04H83.0703C88.7903 224.747 92.9703 223.427 95.6103 221.08C98.2503 218.587 99.8636 214.7 100.45 209.42L102.43 197.54H120.69V223.5H149.29V249.24H120.69V297.64C120.69 303.507 122.084 307.54 124.87 309.74C127.804 311.94 131.397 313.04 135.65 313.04C138.144 313.04 140.637 312.747 143.13 312.16C145.624 311.427 147.897 310.4 149.95 309.08V338.34C145.404 339.66 141.297 340.54 137.63 340.98C133.964 341.42 130.737 341.64 127.95 341.64ZM169.044 339V271.46V183.24H200.724V216.9C200.724 219.98 200.577 223.427 200.284 227.24C199.991 231.053 199.551 235.013 198.964 239.12C198.524 243.227 198.011 247.333 197.424 251.44C196.837 255.547 196.251 259.36 195.664 262.88H199.624C201.384 253.64 203.877 245.867 207.104 239.56C210.331 233.253 214.584 228.487 219.864 225.26C225.144 222.033 231.597 220.42 239.224 220.42C246.117 220.42 251.911 221.667 256.604 224.16C261.297 226.507 265.037 229.733 267.824 233.84C270.757 237.8 272.957 242.347 274.424 247.48C275.891 252.467 276.917 257.673 277.504 263.1C278.091 268.38 278.384 273.44 278.384 278.28V339H246.484V281.58C246.484 276.887 246.191 272.487 245.604 268.38C245.164 264.127 244.211 260.46 242.744 257.38C241.277 254.3 239.224 251.88 236.584 250.12C234.091 248.213 230.864 247.26 226.904 247.26C221.331 247.26 216.637 249.093 212.824 252.76C209.011 256.28 206.077 261.34 204.024 267.94C201.971 274.54 200.797 282.313 200.504 291.26V339H169.044ZM355.497 342.08C345.671 342.08 337.091 340.687 329.757 337.9C322.424 335.113 316.264 331.153 311.277 326.02C306.291 320.887 302.551 314.727 300.057 307.54C297.564 300.207 296.317 292.14 296.317 283.34C296.317 274.54 297.564 266.327 300.057 258.7C302.551 250.927 306.144 244.18 310.837 238.46C315.677 232.74 321.617 228.34 328.657 225.26C335.844 222.033 344.057 220.42 353.297 220.42C362.391 220.42 370.384 221.96 377.277 225.04C384.171 227.973 389.817 232.373 394.217 238.24C398.764 243.96 401.991 250.927 403.897 259.14C405.804 267.207 406.244 276.373 405.217 286.64L316.777 287.52V269.92L384.977 269.26L376.177 278.5C377.057 271.02 376.617 264.86 374.857 260.02C373.097 255.033 370.384 251.367 366.717 249.02C363.051 246.527 358.651 245.28 353.517 245.28C347.944 245.28 343.104 246.747 338.997 249.68C335.037 252.613 332.031 256.867 329.977 262.44C327.924 268.013 326.897 274.687 326.897 282.46C326.897 294.78 329.391 303.873 334.377 309.74C339.511 315.607 346.624 318.54 355.717 318.54C359.824 318.54 363.271 318.027 366.057 317C368.844 315.827 371.117 314.36 372.877 312.6C374.637 310.693 375.957 308.567 376.837 306.22C377.864 303.873 378.524 301.453 378.817 298.96L406.977 303.58C406.391 308.86 404.924 313.847 402.577 318.54C400.377 323.087 397.224 327.12 393.117 330.64C389.011 334.16 383.877 336.947 377.717 339C371.557 341.053 364.151 342.08 355.497 342.08ZM426.212 339V269.7V223.5H452.172L451.732 263.1H455.252C456.865 253.127 459.285 245.06 462.512 238.9C465.739 232.593 469.772 227.973 474.612 225.04C479.599 221.96 485.392 220.42 491.992 220.42C497.125 220.42 501.599 221.3 505.412 223.06C509.225 224.82 512.452 227.46 515.092 230.98C517.732 234.353 519.785 238.753 521.252 244.18C522.719 249.46 523.599 255.767 523.892 263.1H526.972C528.732 252.98 531.372 244.84 534.892 238.68C538.559 232.373 542.959 227.753 548.092 224.82C553.372 221.887 559.312 220.42 565.912 220.42C572.512 220.42 578.012 221.667 582.412 224.16C586.959 226.653 590.552 230.027 593.192 234.28C595.979 238.533 598.105 243.227 599.572 248.36C601.039 253.347 601.992 258.48 602.432 263.76C603.019 268.893 603.312 273.733 603.312 278.28V339H571.632V281.58C571.632 278.94 571.485 275.787 571.192 272.12C571.045 268.307 570.385 264.567 569.212 260.9C568.185 257.087 566.425 254.007 563.932 251.66C561.585 249.167 558.285 247.92 554.032 247.92C549.339 247.92 545.232 249.68 541.712 253.2C538.192 256.573 535.405 261.413 533.352 267.72C531.299 274.027 530.199 281.58 530.052 290.38V339H499.252V282.46C499.252 279.82 499.105 276.593 498.812 272.78C498.519 268.82 497.859 265.007 496.832 261.34C495.805 257.527 494.045 254.373 491.552 251.88C489.205 249.24 485.832 247.92 481.432 247.92C476.739 247.92 472.632 249.607 469.112 252.98C465.592 256.353 462.805 261.193 460.752 267.5C458.845 273.807 457.892 281.507 457.892 290.6V339H426.212ZM679.456 342.08C668.163 342.08 658.116 339.807 649.316 335.26C640.663 330.713 633.843 323.967 628.856 315.02C623.869 305.927 621.376 294.633 621.376 281.14C621.376 267.353 623.869 255.987 628.856 247.04C633.989 238.093 640.956 231.42 649.756 227.02C658.556 222.62 668.529 220.42 679.676 220.42C690.969 220.42 701.016 222.693 709.816 227.24C718.616 231.787 725.436 238.533 730.276 247.48C735.263 256.427 737.756 267.72 737.756 281.36C737.756 295.147 735.189 306.587 730.056 315.68C725.069 324.627 718.176 331.3 709.376 335.7C700.576 339.953 690.603 342.08 679.456 342.08ZM680.556 318.54C684.076 318.54 687.376 317.88 690.456 316.56C693.536 315.24 696.176 313.187 698.376 310.4C700.723 307.613 702.556 303.947 703.876 299.4C705.196 294.853 705.856 289.427 705.856 283.12C705.856 276.373 705.123 270.653 703.656 265.96C702.336 261.12 700.429 257.16 697.936 254.08C695.443 251 692.509 248.727 689.136 247.26C685.909 245.793 682.389 245.06 678.576 245.06C675.056 245.06 671.756 245.72 668.676 247.04C665.743 248.36 663.103 250.487 660.756 253.42C658.409 256.207 656.576 259.873 655.256 264.42C653.936 268.82 653.276 274.247 653.276 280.7C653.276 287.3 653.936 293.02 655.256 297.86C656.723 302.7 658.703 306.66 661.196 309.74C663.689 312.673 666.549 314.873 669.776 316.34C673.149 317.807 676.743 318.54 680.556 318.54ZM757.286 339V271.46V223.5H783.466L783.026 263.1H786.546C788.159 252.833 790.726 244.62 794.246 238.46C797.913 232.153 802.459 227.607 807.886 224.82C813.313 221.887 819.619 220.42 826.806 220.42C833.406 220.42 839.053 221.593 843.746 223.94C848.439 226.14 852.253 229.22 855.186 233.18C858.119 237.14 860.393 241.54 862.006 246.38C863.766 251.22 864.939 256.28 865.526 261.56C866.259 266.84 866.626 272.047 866.626 277.18V339L834.726 339V280.7C834.726 277.913 834.579 274.687 834.286 271.02C833.993 267.207 833.259 263.54 832.086 260.02C830.913 256.353 828.933 253.347 826.146 251C823.506 248.507 819.766 247.26 814.926 247.26C809.353 247.26 804.586 249.093 800.626 252.76C796.813 256.28 793.879 261.34 791.826 267.94C789.919 274.54 788.893 282.387 788.746 291.48V339H757.286ZM942.64 342.08C931.346 342.08 921.3 339.807 912.5 335.26C903.846 330.713 897.026 323.967 892.04 315.02C887.053 305.927 884.56 294.633 884.56 281.14C884.56 267.353 887.053 255.987 892.04 247.04C897.173 238.093 904.14 231.42 912.94 227.02C921.74 222.62 931.713 220.42 942.86 220.42C954.153 220.42 964.2 222.693 973 227.24C981.8 231.787 988.62 238.533 993.46 247.48C998.446 256.427 1000.94 267.72 1000.94 281.36C1000.94 295.147 998.373 306.587 993.24 315.68C988.253 324.627 981.36 331.3 972.56 335.7C963.76 339.953 953.786 342.08 942.64 342.08ZM943.74 318.54C947.26 318.54 950.56 317.88 953.64 316.56C956.72 315.24 959.36 313.187 961.56 310.4C963.906 307.613 965.74 303.947 967.06 299.4C968.38 294.853 969.04 289.427 969.04 283.12C969.04 276.373 968.306 270.653 966.84 265.96C965.52 261.12 963.613 257.16 961.12 254.08C958.626 251 955.693 248.727 952.32 247.26C949.093 245.793 945.573 245.06 941.76 245.06C938.24 245.06 934.94 245.72 931.86 247.04C928.926 248.36 926.286 250.487 923.94 253.42C921.593 256.207 919.76 259.873 918.44 264.42C917.12 268.82 916.46 274.247 916.46 280.7C916.46 287.3 917.12 293.02 918.44 297.86C919.906 302.7 921.886 306.66 924.38 309.74C926.873 312.673 929.733 314.873 932.96 316.34C936.333 317.807 939.926 318.54 943.74 318.54Z" fill="white"/>
</g>
<defs>
<clipPath id="clip0_1_2">
<rect width="1080" height="1080" fill="white"/>
</clipPath>
</defs>
</svg>
